# xmcd CD database file
#
# Track frame offsets:
#	200
#	8090
#	34477
#	49675
#	63247
#	80692
#	92010
#	100675
#	120200
#	132660
#	148437
#	164825
#	176730
#	192937
#	215600
#	227362
#	243272
#
# Disc length: 3399 seconds
#
# Revision: 3
# Processed by: cddbd v1.5PL3 Copyright (c) Steve Scherf et al.
# Submitted via: CDex 1.51
#
DISCID=ef0d4511
DTITLE=Doc and Merle Watson - Remembering Merle - Live Recordings 1976-1979
DYEAR=1992
DGENRE=Folk
TTITLE0=Frosty Morn
TTITLE1=Omie Wise
TTITLE2=Frankie and Johnny
TTITLE3=Honey Babe Blues
TTITLE4=St. James Infirmary
TTITLE5=Honey Please Don't Go
TTITLE6=Nancy Rowland - Salt Creek
TTITLE7=Miss The Mississippi and You
TTITLE8=Nine Pound Hammer
TTITLE9=Summertime
TTITLE10=New River Train
TTITLE11=Black Mountain Rag
TTITLE12=Southern Lady
TTITLE13=Mama Don't Allow
TTITLE14=Blue Suede Shoes
TTITLE15=Wayfaring Stranger
TTITLE16=Thoughts Of Never
EXTD=YEAR: 1992
EXTT0=
EXTT1=
EXTT2=
EXTT3=
EXTT4=
EXTT5=
EXTT6=
EXTT7=
EXTT8=
EXTT9=
EXTT10=
EXTT11=
EXTT12=
EXTT13=
EXTT14=
EXTT15=
EXTT16=
PLAYORDER=
